<svg width="165" height="113" viewBox="0 0 165 113" fill="none" xmlns="http://www.w3.org/2000/svg">
<path d="M82.4476 113C60.8424 113 40.5248 108.512 25.2356 100.378C9.80005 92.1621 1.29756 81.142 1.29756 69.3493C1.29756 57.5567 9.80005 46.5366 25.2356 38.3181C40.5248 30.18 60.8424 25.6987 82.4476 25.6987C104.053 25.6987 124.37 30.1871 139.658 38.3181C155.095 46.5366 163.596 57.5567 163.596 69.3493C163.596 81.142 155.095 92.1621 139.658 100.378C124.37 108.519 104.051 113 82.4476 113ZM82.4476 27.0759C60.9384 27.0759 40.7229 31.5312 25.5251 39.6221C10.4751 47.6327 2.18591 58.1898 2.18591 69.3493C2.18591 80.5089 10.4751 91.066 25.5251 99.0766C40.7229 107.167 60.9384 111.623 82.4476 111.623C103.957 111.623 124.172 107.167 139.37 99.0766C154.419 91.066 162.708 80.5065 162.708 69.3493C162.708 58.1922 154.419 47.6327 139.37 39.6221C124.172 31.5312 103.957 27.0759 82.4476 27.0759Z" fill="white"/>
<path d="M18.5509 41.2639C13.7252 43.0144 9.98595 48.0886 7.02989 54.0605C5.34006 57.4764 3.88793 61.164 2.52722 64.9129C1.21376 68.532 -0.325225 72.6755 0.0602825 76.9985C0.834344 85.6611 7.4672 87.2722 11.9455 88.2218C15.4806 88.9706 18.5844 90.5605 21.6593 93.4047C24.3457 95.8922 26.8614 98.7931 29.5615 101.248C34.9159 106.114 40.793 109.752 46.92 111.42C53.0728 113.094 58.9682 112.223 65.0297 110.191C68.5998 108.994 72.144 107.975 75.8041 107.751C79.3696 107.531 82.9397 107.834 86.5007 108.129C93.6532 108.721 100.805 109.317 107.957 109.917C118.635 110.805 131.028 112.891 140.46 103.303C145.226 98.4529 147.854 90.2676 152.412 85.113C156.006 81.0475 161.678 80.3057 164.076 73.9558C166.74 66.8949 163.174 59.1277 159.352 55.3503C156.622 52.6526 153.532 50.8194 150.586 48.7784L140.758 41.9632C137.543 39.7332 134.337 37.4748 131.108 35.2826C128.16 33.2864 125.15 31.5194 121.946 30.8509C115.242 29.45 108.411 31.5596 101.67 31.0044C94.6421 30.4328 87.7045 28.4933 80.7486 26.946C77.5304 26.2373 74.3016 25.5924 71.0576 25.2097C67.7297 24.8176 64.2297 24.4278 60.911 25.1507C57.9854 25.7885 56.0472 28.3468 53.7387 30.9407C50.7796 34.2668 47.5493 34.6424 44.0157 34.0424C40.8494 33.5061 37.7592 32.7856 34.5685 33.0667C28.6326 33.5805 22.883 36.4636 17.8774 41.4364C17.6732 41.6372 17.8622 42.1451 18.0679 41.9419C23.3191 36.7512 29.3795 33.8638 35.6046 33.5864C40.9377 33.3715 47.0525 37.1441 52.0794 33.251C54.6697 31.2478 56.5287 27.5508 59.3629 26.2468C62.4804 24.8105 66.1527 25.3349 69.3601 25.6184C76.0052 26.209 82.571 27.9807 89.149 29.4737C95.2775 30.8603 101.458 32.0037 107.664 31.7037C114.297 31.38 120.788 29.9556 127.203 33.4683C133.537 36.9385 139.632 41.8143 145.762 46.0641C148.724 48.1193 151.691 50.1556 154.649 52.2274C157.372 54.1361 160.197 56.2433 162.214 59.7631C164.28 63.3751 165.438 68.91 163.857 73.4031C162.673 76.7646 160.337 78.5198 158.167 79.9797C155.997 81.4396 153.765 82.7625 151.86 85.0398C149.861 87.4281 148.247 90.4731 146.626 93.4354C143.013 100.05 139.049 104.989 133.616 107.505C128.491 109.879 123.061 110.215 117.747 110.04C104.85 109.61 91.9786 107.283 79.0786 107.108C76.0128 107.066 72.947 107.304 69.9194 108.084C66.7622 108.897 63.672 110.191 60.5118 111.009C54.301 112.613 47.979 111.755 41.951 109.015C36.141 106.374 30.8155 102.039 25.7994 96.8513C23.4299 94.4039 21.059 91.8905 18.4305 90.1447C15.6436 88.295 12.7287 87.8864 9.76653 87.1824C6.87142 86.4926 3.82393 85.2311 1.83392 81.631C-0.814344 76.826 0.826727 70.9179 2.53789 66.1154C4.9835 59.2505 7.76129 52.2746 11.7154 47.2429C13.7299 44.6346 16.1065 42.7846 18.6591 41.838C18.8953 41.7529 18.7947 41.1883 18.5585 41.2734L18.5509 41.2639Z" fill="white"/>
<path d="M60.1659 26.287C76.0404 16.6487 93.2717 13.6587 110.128 17.6173C110.46 17.6953 110.603 16.9086 110.268 16.8259C93.3225 12.83 75.9969 15.8209 60.0333 25.498C59.7194 25.6893 59.8565 26.4807 60.1735 26.287H60.1659Z" fill="white"/>
<path d="M73.0796 20.0434C79.4793 12.5643 87.4653 10.1784 95.1739 7.99565C95.5091 7.90115 95.3674 7.11214 95.0337 7.20664C87.2763 9.39886 79.2462 11.8155 72.8069 19.3371C72.5387 19.6513 72.8069 20.3623 73.0735 20.0458L73.0796 20.0434Z" fill="white"/>
<path d="M77.7803 15.6471C84.3324 6.40578 93.708 2.90721 102.262 6.4861C102.33 6.51492 102.402 6.50099 102.463 6.44738C102.524 6.39378 102.568 6.30489 102.587 6.20026C102.605 6.09563 102.596 5.98384 102.562 5.88947C102.527 5.79511 102.47 5.72591 102.402 5.69709C93.6623 2.03788 84.1038 5.62858 77.413 15.0683C77.1616 15.4227 77.535 16.0133 77.7864 15.6471H77.7803Z" fill="white"/>
<path d="M78.9155 15.007C87.1026 14.7211 95.5243 14.1234 102.506 6.68455C102.783 6.3869 102.52 5.67585 102.239 5.97586C95.3338 13.3415 87.0172 13.9038 78.9155 14.1872C78.5757 14.1872 78.5757 15.0188 78.9155 15.007Z" fill="white"/>
<path d="M82.5146 12.3399C84.0851 10.3749 85.7419 8.58153 87.4728 6.97275C87.7654 6.70345 87.4987 5.99476 87.2062 6.26406C85.4374 7.91058 83.745 9.74662 82.1413 11.7588C81.8761 12.0895 82.2525 12.6659 82.5146 12.3375V12.3399Z" fill="white"/>
<path d="M86.2614 10.8705C88.4511 8.41137 90.947 6.80027 93.4886 5.43723C93.8085 5.26714 93.6699 4.47577 93.3484 4.64822C90.758 6.03725 88.2195 7.6696 85.9948 10.1666C85.722 10.4737 85.9841 11.1847 86.2614 10.8752V10.8705Z" fill="white"/>
<path d="M90.9942 9.26889C93.5683 7.47004 96.3147 6.33536 99.1249 5.90969C99.4601 5.85772 99.4632 5.038 99.1249 5.08997C96.2227 5.53121 93.3864 6.70334 90.7276 8.5602C90.4228 8.77517 90.6849 9.4815 90.9942 9.26889Z" fill="white"/>
<path d="M85.0836 12.0139C87.0444 13.1937 89.1526 13.667 91.2487 13.3982C91.5854 13.3557 91.5885 12.536 91.2487 12.5809C89.2005 12.8471 87.1401 12.3833 85.2253 11.2249C84.9099 11.0289 84.7682 11.8202 85.0836 12.0139Z" fill="white"/>
<path d="M89.3227 10.332C91.9572 11.2769 94.7731 11.6714 97.432 10.7383C97.7627 10.6225 97.6225 9.83115 97.2903 9.9469C94.7304 10.8469 91.9984 10.4619 89.4644 9.54295C89.1337 9.42247 88.992 10.2115 89.3227 10.332Z" fill="white"/>
<path d="M93.1762 8.5319C95.7391 8.62875 98.3371 8.67127 100.885 8.19173C101.219 8.12794 101.223 7.30823 100.885 7.37201C98.3371 7.84447 95.7391 7.8114 93.1762 7.71454C92.8364 7.70037 92.8364 8.52009 93.1762 8.5319Z" fill="white"/>
<path d="M100.513 15.7983C107.285 11.7306 114.49 9.67272 121.753 9.73194C121.819 9.72409 121.881 9.6775 121.927 9.6015C121.972 9.5255 121.998 9.4257 121.998 9.32208C121.998 9.21846 121.972 9.11865 121.927 9.04265C121.881 8.96665 121.819 8.92007 121.753 8.91222C114.444 8.85084 107.192 10.9191 100.376 15.0093C100.062 15.1983 100.199 15.9897 100.516 15.7983H100.513Z" fill="white"/>
<path d="M104.002 13.6581C110.555 5.16796 120.118 4.01043 127.66 10.2209C127.965 10.4572 127.812 9.46499 127.508 9.21695C123.734 6.08901 119.442 4.785 115.186 5.47298C110.93 6.16096 106.904 8.8094 103.628 13.077C103.365 13.4171 103.742 13.9935 104.001 13.6581H104.002Z" fill="white"/>
<path d="M104.274 13.5848C108.525 14.3924 112.816 14.568 117.088 14.1093C120.544 13.7289 124.916 13.6108 127.883 10.5375C128.164 10.2469 127.901 9.53821 127.616 9.82877C126.005 11.4966 124.111 11.9548 122.239 12.399C120.145 12.8919 118.04 13.2258 115.924 13.4006C112.036 13.7116 108.138 13.4982 104.274 12.7628C103.937 12.699 103.938 13.5187 104.274 13.5825V13.5848Z" fill="white"/>
<path d="M107.926 11.9005C110.19 9.16496 112.814 7.35308 115.589 6.26406C115.918 6.13413 115.778 5.34276 115.449 5.47268C112.581 6.60186 109.89 8.49643 107.553 11.3217C107.285 11.6454 107.661 12.2218 107.926 11.9005Z" fill="white"/>
<path d="M115.05 10.2894C117.308 8.13546 119.936 7.0966 122.584 7.31054C122.924 7.33652 122.923 6.5168 122.584 6.49318C119.842 6.28054 117.123 7.35758 114.783 9.58307C114.492 9.8571 114.757 10.5658 115.05 10.2918V10.2894Z" fill="white"/>
<path d="M110.969 11.1399C112.596 11.8486 114.146 12.8242 115.825 13.2541C117.463 13.6566 119.127 13.7257 120.776 13.4597C121.111 13.41 121.114 12.5903 120.776 12.6399C118.993 12.9307 117.193 12.8217 115.43 12.3163C113.945 11.8722 112.558 10.984 111.109 10.3485C111.043 10.3267 110.974 10.3449 110.916 10.3994C110.858 10.4539 110.816 10.5406 110.798 10.6417C110.78 10.7428 110.788 10.8507 110.82 10.9433C110.852 11.0359 110.905 11.1062 110.969 11.1399Z" fill="white"/>
<path d="M116.235 9.99652C119.318 11.5911 122.618 12.5195 125.873 12.1013C126.209 12.0565 126.213 11.2367 125.873 11.2816C122.659 11.695 119.42 10.7808 116.375 9.20751C116.052 9.03979 115.918 9.83116 116.235 9.99652Z" fill="white"/>
<path d="M69.2824 5.94986C70.8762 9.30906 71.1612 13.6959 69.7075 17.3078C68.3362 20.7024 65.6742 22.2474 63.3992 23.7356C63.0945 23.9364 63.2255 24.7302 63.5394 24.5247C66.1069 22.8474 69.0249 21.1324 70.3963 17.0999C71.6823 13.3321 71.3486 8.92637 69.7395 5.53646C69.5399 5.11833 69.0813 5.52465 69.2824 5.94986Z" fill="white"/>
<path d="M69.5963 6.23809C69.127 6.22391 68.6546 6.21919 68.1853 6.19084C67.9307 6.19371 67.6762 6.17162 67.4234 6.12469C67.3147 5.479 67.4163 5.21442 67.7282 5.33096C67.7686 5.33011 67.8084 5.31502 67.8445 5.28684C67.8806 5.25865 67.9121 5.2181 67.9366 5.16827C67.9611 5.11843 67.978 5.06061 67.986 4.99917C67.9939 4.93773 67.9928 4.87427 67.9826 4.81361C67.9339 4.49234 67.6261 3.22379 67.7389 2.99701C68.0634 2.34737 68.4017 3.25213 68.5175 3.62537C68.6333 3.99862 68.9243 3.82145 69.0005 3.52853C69.1529 2.93323 69.7791 2.07335 69.9666 2.9663C69.9437 2.86235 69.9452 3.91122 69.9346 3.64664C69.9357 3.75486 69.9641 3.8581 70.0136 3.93442C70.0631 4.01073 70.1299 4.0541 70.1997 4.05531C70.2881 4.05531 71.0423 3.88287 71.0774 3.98208C71.3471 4.76637 69.9437 5.43727 69.6969 5.4538C69.3586 5.47742 69.3555 6.29714 69.6969 6.27352C70.4587 6.22155 71.4233 5.49869 71.5863 4.19942C71.7554 2.84582 70.765 3.17654 70.1997 3.2356L70.4633 3.64664C70.4298 2.68282 70.7482 1.52056 69.7974 1.41426C69.0615 1.32686 68.7201 2.41352 68.4901 3.3041L68.9731 3.20488C68.7338 2.43241 68.2417 1.39772 67.6124 1.95995C66.8779 2.61667 67.3305 4.08603 67.4737 5.03095L67.7282 4.51124C67.1629 4.51124 66.3248 4.88449 66.6052 6.05146C66.9663 7.56098 68.874 7.03418 69.6009 7.0578C69.9422 7.06961 69.9422 6.2499 69.6009 6.23809H69.5963Z" fill="white"/>
<path d="M70.0534 5.01679C69.6496 4.35298 68.9685 3.93249 68.4398 4.52307C68.0131 4.99553 67.8699 6.02312 68.2737 6.62315C68.6775 7.22318 69.5948 7.30349 70.1022 7.05073C70.6096 6.79796 70.9478 5.86957 70.6446 5.10891C70.4663 4.66007 70.0092 5.07112 70.1875 5.52232C70.5791 6.50267 69.1011 6.35149 68.8161 6.18613C68.4641 5.97825 68.5022 5.2979 68.8481 5.09947C69.1529 4.9223 69.479 5.27192 69.677 5.59555C69.9117 5.98061 70.2865 5.39948 70.0504 5.01679H70.0534Z" fill="white"/>
<path d="M82.5603 17.3244C88.3089 19.9501 94.292 21.1289 100.281 20.8158C100.62 20.7993 100.621 19.9796 100.281 19.9961C94.3396 20.3105 88.4037 19.1436 82.7005 16.5401C82.3729 16.3912 82.2327 17.1803 82.5588 17.3291L82.5603 17.3244Z" fill="white"/>
<path d="M87.8812 19.2331C94.4819 16.7524 101.43 17.8184 107.589 22.2569C107.894 22.4766 108.164 21.7702 107.856 21.5482C101.572 17.0092 94.4804 15.9139 87.7425 18.4417C87.4119 18.5669 87.5521 19.356 87.8827 19.2331H87.8812Z" fill="white"/>
<path d="M87.8401 19.5828C93.8025 25.5145 101.007 24.9948 107.678 22.838C108.01 22.7317 107.87 21.9427 107.538 22.049C101.002 24.1609 93.9503 24.6901 88.1067 18.8764C87.8203 18.5906 87.5551 19.2993 87.8401 19.5851V19.5828Z" fill="white"/>
<path d="M92.0562 20.0056C94.0249 19.1197 96.0774 18.437 98.1329 18.352C98.4712 18.3378 98.4727 17.5205 98.1329 17.5346C96.0317 17.622 93.9274 18.3142 91.9161 19.2166C91.59 19.3631 91.7286 20.1615 92.0562 20.008V20.0056Z" fill="white"/>
<path d="M98.4118 20.667C101.278 20.3027 104.163 20.7453 106.928 21.9734C107.256 22.1175 107.396 21.3285 107.07 21.1844C104.259 19.9342 101.326 19.4813 98.4118 19.8473C98.0751 19.8899 98.072 20.7096 98.4118 20.667Z" fill="white"/>
<path d="M94.0843 20.6859C95.2368 22.4666 96.6949 23.6966 98.2853 24.2294C98.6175 24.3404 98.7592 23.5514 98.4255 23.438C96.9253 22.9392 95.5498 21.7802 94.4638 20.1001C94.4142 20.0233 94.3471 19.9802 94.2771 19.9802C94.2071 19.9802 94.1399 20.0233 94.0904 20.1001C94.0409 20.1768 94.0131 20.2809 94.0131 20.3895C94.0131 20.498 94.0409 20.6021 94.0904 20.6788L94.0843 20.6859Z" fill="white"/>
<path d="M98.5139 20.6812C100.126 22.3039 101.967 23.2983 103.881 23.5797C104.217 23.6317 104.216 22.812 103.881 22.76C102.059 22.4833 100.308 21.5268 98.7775 19.9725C98.4911 19.6867 98.2259 20.3954 98.5109 20.6812H98.5139Z" fill="white"/>
<path d="M56.4098 28.4154C58.9725 22.0742 62.7223 17.0964 67.1583 14.1471C67.4631 13.9392 67.201 13.2328 66.8916 13.4384C62.3762 16.4576 58.5611 21.5376 55.9542 28.002C55.7729 28.4508 56.23 28.8618 56.4113 28.4154H56.4098Z" fill="white"/>
<path d="M58.0813 24.4727C59.1342 16.4007 63.9691 11.1706 69.2321 12.536C69.5643 12.6234 69.7075 11.8273 69.3723 11.747C63.8411 10.3107 58.6863 15.7085 57.5724 24.2672C57.5054 24.7821 58.0143 25.0018 58.0813 24.4845V24.4727Z" fill="white"/>
<path d="M58.473 23.8963C60.708 23.4231 62.8429 22.1592 64.7125 20.2024C66.5821 18.2456 68.1363 15.6484 69.255 12.6116C69.4241 12.1533 68.967 11.7399 68.7979 12.1958C67.7136 15.1405 66.2053 17.6573 64.3906 19.5499C62.576 21.4426 60.5039 22.66 58.3359 23.1073C58.0006 23.1782 58.1423 23.9672 58.4761 23.8963H58.473Z" fill="white"/>
<path d="M60.3243 20.6836C61.054 18.4284 61.9998 16.3576 63.1295 14.5416C63.3657 14.1636 62.9924 13.5825 62.7562 13.9628C61.5902 15.8261 60.614 17.9537 59.8611 20.2725C59.7087 20.745 60.1659 21.1584 60.3182 20.6859L60.3243 20.6836Z" fill="white"/>
<path d="M64.0666 16.3771C65.1501 14.518 66.5454 13.1621 68.0969 12.4604C68.4214 12.3116 68.2828 11.5155 67.9552 11.669C66.3146 12.4091 64.838 13.8382 63.6887 15.7983C63.4601 16.1857 63.8411 16.7669 64.0635 16.3771H64.0666Z" fill="white"/>
<path d="M61.9288 18.6662C63.3623 18.9332 64.8161 18.7016 66.1846 17.9882C66.5046 17.8228 66.3675 17.0314 66.0429 17.1968C64.7198 17.8855 63.3143 18.1074 61.9288 17.8464C61.5921 17.785 61.5951 18.6047 61.9288 18.6662Z" fill="white"/>
<path d="M65.8677 15.4015C66.5102 15.5284 67.1624 15.4634 67.7891 15.2101C68.1183 15.0778 67.9781 14.2888 67.6474 14.4187C67.0666 14.6509 66.4622 14.7063 65.8677 14.5817C65.531 14.5156 65.534 15.3353 65.8677 15.4015Z" fill="white"/>
<path d="M108.543 17.296C111.077 16.0346 113.631 16.7952 115.848 19.0016C116.136 19.2875 116.401 18.5788 116.115 18.2929C113.791 15.9826 111.057 15.1865 108.403 16.5047C108.08 16.6653 108.219 17.4496 108.543 17.296Z" fill="white"/>
<path d="M107.973 17.3905C110.12 20.0646 113.523 19.826 116.09 19.2142C116.426 19.1339 116.282 18.3449 115.95 18.4252C113.608 18.9827 110.302 19.2473 108.347 16.8117C108.085 16.4857 107.708 17.0621 107.973 17.3905Z" fill="white"/>
<path d="M109.345 17.7378C111.347 17.9415 113.342 18.309 115.319 18.8386C115.651 18.926 115.795 18.1299 115.459 18.0472C113.435 17.5057 111.394 17.1288 109.345 16.918C109.005 16.885 109.006 17.7047 109.345 17.7378Z" fill="white"/>
<path d="M70.0854 21.2647C74.1088 20.8438 78.1503 21.1738 82.123 22.2474C82.4552 22.3372 82.5984 21.5387 82.2632 21.456C78.2467 20.365 74.1601 20.0264 70.0915 20.4473C69.7532 20.4804 69.7517 21.3001 70.0915 21.2647H70.0854Z" fill="white"/>
<path d="M82.0377 21.8104C82.4203 21.4964 82.8312 21.2735 83.2567 21.1489C83.3222 21.1324 83.8524 20.9481 83.9088 21.0544C83.7778 20.8064 83.3862 21.2482 83.249 21.3119C83.054 21.4064 82.9641 21.912 83.185 22.0608L83.7671 22.4458L84.0109 22.6088C83.9555 22.7082 83.879 22.7737 83.7953 22.7937C83.7115 22.8136 83.6259 22.7866 83.5538 22.7175C83.5089 22.6976 83.4614 22.697 83.4163 22.7157C83.3712 22.7344 83.3302 22.7718 83.2978 22.8238C83.1454 23.0978 83.2125 23.1687 83.2003 23.4853L83.2536 23.6837C83.2 23.7094 83.1423 23.7059 83.0902 23.6736C83.038 23.6414 82.9946 23.5824 82.9671 23.5065C82.8321 23.3125 82.731 23.0687 82.6731 22.7978C82.5207 22.134 82.3927 21.4631 81.8426 21.6167C81.5089 21.7159 81.6491 22.5073 81.9828 22.408C81.9904 22.408 82.4095 23.7758 82.4978 23.927C82.675 24.2608 82.9199 24.4915 83.1927 24.5814C83.3038 24.61 83.4179 24.5864 83.5203 24.5136C83.6227 24.4407 83.7087 24.322 83.7671 24.1727C83.8157 24.0198 83.8327 23.8474 83.8159 23.679C83.8031 23.591 83.7842 23.5055 83.7595 23.4238C83.729 23.2207 83.7001 23.2112 83.6711 23.3978L83.4136 23.5018C83.8601 23.738 84.5381 23.7758 84.6326 22.8309C84.7271 21.886 83.8616 21.6238 83.4563 21.3521C83.4365 21.6025 83.4151 21.8505 83.3938 22.1009C83.7062 21.9521 84.1145 21.7088 84.2928 21.2481C84.3263 21.1712 84.3487 21.084 84.3586 20.9924C84.3684 20.9008 84.3654 20.807 84.3498 20.7174C84.3342 20.6278 84.3063 20.5444 84.2681 20.4729C84.2299 20.4015 84.1822 20.3436 84.1282 20.3032C83.8418 20.1048 83.4197 20.2796 83.121 20.3646C82.6493 20.5067 82.1938 20.7566 81.7695 21.1064C81.4647 21.3426 81.7344 22.0513 82.0361 21.8151L82.0377 21.8104Z" fill="white"/>
<path d="M29.7702 34.822C31.1416 32.1738 32.7064 29.8966 34.698 28.3989C37.8171 26.0578 41.4177 25.479 44.8263 25.12C45.1646 25.0845 45.1676 24.2648 44.8263 24.3003C41.4085 24.6593 37.8476 25.2452 34.6995 27.4965C32.551 29.0272 30.8673 31.4108 29.3969 34.2432C29.1851 34.6495 29.5569 35.233 29.7702 34.822Z" fill="white"/>
<path d="M31.2909 32.2116C33.4485 23.9577 39.705 23.027 44.6115 24.7089C44.9437 24.8223 45.0854 24.0333 44.7532 23.9199C39.5222 22.1269 33.0554 23.2963 30.782 31.9919C30.654 32.4809 31.166 32.7006 31.2909 32.2116Z" fill="white"/>
<path d="M31.5987 31.9636C34.6462 31.9494 37.7821 31.4911 40.7412 30.2296C42.7129 29.3839 44.514 27.8035 45.2103 24.6664C45.3216 24.1679 44.8111 23.9577 44.7014 24.4491C43.8709 28.1839 41.3491 29.2611 39.0986 29.9863C36.6322 30.763 34.1215 31.1516 31.6048 31.1462C31.5349 31.1462 31.4678 31.1892 31.4184 31.2659C31.369 31.3425 31.3412 31.4465 31.3412 31.5549C31.3412 31.6633 31.369 31.7672 31.4184 31.8438C31.4678 31.9205 31.5349 31.9636 31.6048 31.9636H31.5987Z" fill="white"/>
<path d="M33.9178 28.9469C35.1514 27.1706 36.5519 25.6954 38.0715 24.5719C38.3763 24.3357 38.1111 23.6388 37.8049 23.8632C36.2427 25.0222 34.8039 26.5446 33.5384 28.3776C33.29 28.739 33.6633 29.3225 33.9117 28.9563L33.9178 28.9469Z" fill="white"/>
<path d="M39.3241 25.8476C40.4776 24.7746 41.8244 24.3104 43.1624 24.5247C43.5007 24.5743 43.4976 23.7546 43.1624 23.705C41.7303 23.4891 40.2914 23.9918 39.0574 25.1389C38.7649 25.4082 39.03 26.1169 39.3241 25.8476Z" fill="white"/>
<path d="M34.6568 28.4106C36.8994 29.8843 39.3757 30.2802 41.7651 29.5469C42.0988 29.443 41.9586 28.654 41.6249 28.7579C39.3721 29.4448 37.0385 29.0781 34.9204 27.7043C34.6157 27.4964 34.3414 28.2028 34.6538 28.413L34.6568 28.4106Z" fill="white"/>
<path d="M37.8217 26.7594C39.513 27.6689 42.3685 28.9587 44.1071 27.6098C44.4119 27.3736 44.1437 26.6649 43.8405 26.9011C43.135 27.4492 42.1019 27.2507 41.3492 27.1374C40.1952 26.955 39.0589 26.5641 37.9634 25.9727C37.6404 25.8003 37.5063 26.5917 37.8217 26.7617V26.7594Z" fill="white"/>
<path d="M46.5207 35.3771C50.1627 37.1998 53.9853 37.9998 57.8086 37.7394C58.1484 37.7181 58.1499 36.8984 57.8086 36.9221C54.0329 37.1794 50.2579 36.3906 46.6609 34.5928C46.3363 34.4298 46.2038 35.2212 46.5207 35.3818V35.3771Z" fill="white"/>
<path d="M50.4566 36.7827C54.3613 35.1178 58.51 35.4753 62.2717 37.8008C62.5886 37.9945 62.7288 37.2031 62.4119 37.0118C58.5582 34.644 54.3116 34.2898 50.3164 36.0031C50.2489 36.0319 50.1916 36.1011 50.157 36.1955C50.1224 36.2898 50.1134 36.4016 50.132 36.5063C50.1506 36.6109 50.1952 36.6998 50.2561 36.7534C50.317 36.807 50.3891 36.8209 50.4566 36.7921V36.7827Z" fill="white"/>
<path d="M50.513 37.5032C54.1837 41.2593 58.6757 40.9427 62.4606 37.8245C62.7654 37.5764 62.4942 36.8795 62.194 37.1158C58.5705 40.1017 54.2934 40.3899 50.7796 36.7969C50.4947 36.5063 50.2311 37.215 50.513 37.5056V37.5032Z" fill="white"/>
<path d="M54.5737 37.2953C55.6404 36.4826 56.7374 36.1684 57.926 36.0928C58.2642 36.0716 58.2658 35.2519 57.926 35.2731C56.6506 35.3534 55.4621 35.7125 54.3101 36.5889C54.0054 36.8252 54.272 37.5339 54.5768 37.2976L54.5737 37.2953Z" fill="white"/>
<path d="M57.6304 37.5362C58.9802 37.3319 60.3397 37.3319 61.6896 37.5362C62.0279 37.5858 62.0248 36.7661 61.6896 36.7165C60.3397 36.5145 58.9803 36.5145 57.6304 36.7165C57.2951 36.7661 57.2921 37.5858 57.6304 37.5362Z" fill="white"/>
<path d="M52.4694 37.4701C53.9957 38.9653 55.7185 39.9121 57.5115 40.241C57.8467 40.3096 57.8436 39.4898 57.5115 39.4213C55.8121 39.0978 54.181 38.189 52.7376 36.7614C52.4496 36.4779 52.1844 37.1866 52.4694 37.4701Z" fill="white"/>
<path d="M56.0517 38.0937C57.4552 38.9129 58.9611 39.2224 60.4538 38.9985C60.7906 38.9513 60.7936 38.1315 60.4538 38.1811C59.0072 38.3982 57.5476 38.0984 56.1873 37.3047C55.8674 37.1205 55.7302 37.9118 56.0456 38.0937H56.0517Z" fill="white"/>
<path d="M134.066 36.1921C126.921 33.8888 119.077 34.7534 112.033 37.5787C111.703 37.711 111.844 38.5 112.173 38.3677C119.116 35.5826 126.878 34.7109 133.926 36.9834C134.256 37.0897 134.398 36.3007 134.066 36.1921Z" fill="white"/>
<path d="M125.633 34.9117C121.486 32.9392 115.577 33.0219 112.086 37.4724C111.822 37.8055 112.199 38.3819 112.459 38.0512C115.772 33.8416 121.568 33.8345 125.493 35.7007C125.819 35.8566 125.958 35.0653 125.633 34.9117Z" fill="white"/>
<path d="M126.475 35.3535C124.583 37.9103 122.239 39.5241 119.747 39.9842C117.255 40.4444 114.732 39.7296 112.506 37.9331C112.202 37.6969 111.937 38.4056 112.24 38.6418C117.082 42.4806 122.731 41.4388 126.848 35.9346C127.105 35.5897 126.731 35.0133 126.475 35.3559V35.3535Z" fill="white"/>
<path d="M114.884 39.986C116.683 39.0765 118.591 37.9851 120.115 36.2063C120.383 35.8921 120.115 35.181 119.848 35.4976C118.355 37.2457 116.505 38.3111 114.743 39.1993C114.422 39.3623 114.559 40.1442 114.884 39.9907V39.986Z" fill="white"/>
<path d="M119.826 40.6143C121.766 39.093 123.866 37.6378 125.576 35.5283C125.841 35.1999 125.464 34.6235 125.201 34.9472C123.534 37.0071 121.452 38.4221 119.563 39.908C119.258 40.1442 119.526 40.8529 119.83 40.6167L119.826 40.6143Z" fill="white"/>
<path d="M114.663 36.0527C115.5 36.0526 116.335 36.2113 117.148 36.5252C117.48 36.6409 117.622 35.8519 117.289 35.7362C116.43 35.4052 115.548 35.2386 114.663 35.2401C114.323 35.2566 114.321 36.0763 114.663 36.0598V36.0527Z" fill="white"/>
<path d="M118.307 34.9826C119.52 35.1716 120.727 35.4283 121.928 35.7527C122.26 35.8425 122.403 35.044 122.068 34.9637C120.821 34.6267 119.567 34.3597 118.307 34.1629C117.969 34.1109 117.972 34.9283 118.307 34.9826Z" fill="white"/>
<path d="M127.089 26.7641C132.671 32.4576 138.55 37.4206 144.664 41.6017C144.968 41.8143 145.241 41.108 144.93 40.893C138.816 36.7119 132.938 31.7489 127.355 26.0554C127.07 25.7649 126.805 26.4735 127.089 26.7641Z" fill="white"/>
<path d="M134.621 32.8258C130.188 31.321 125.783 28.9847 123.416 22.5049C123.249 22.0443 122.792 22.4577 122.959 22.9183C125.397 29.5871 129.901 32.0628 134.479 33.6148C134.811 33.7282 134.951 32.9392 134.619 32.8258H134.621Z" fill="white"/>
<path d="M123.291 23.0766C128.198 23.2018 132.912 26.7122 134.919 33.9597C135.053 34.4322 135.507 34.0259 135.376 33.5463C133.299 26.046 128.367 22.3868 123.293 22.2569C122.952 22.2569 122.952 23.0671 123.293 23.0766H123.291Z" fill="white"/>
<path d="M125.047 23.4947C126.271 24.5247 127.368 25.8846 128.285 27.5106C128.509 27.9099 128.882 27.3287 128.658 26.9319C127.711 25.2503 126.578 23.8433 125.314 22.7766C125.009 22.5238 124.748 23.2325 125.047 23.4853V23.4947Z" fill="white"/>
<path d="M129.175 25.1838C130.241 27.0736 131.279 29.0792 132.004 31.3447C132.157 31.8171 132.614 31.4037 132.461 30.9312C131.718 28.6067 130.651 26.5445 129.55 24.6026C129.324 24.2081 128.952 24.7893 129.176 25.1838H129.175Z" fill="white"/>
<path d="M124.567 25.7531C125.591 26.3106 126.548 27.0122 127.631 27.2791C127.944 27.3571 128.079 26.6153 127.764 26.5373C126.682 26.2704 125.723 25.5688 124.699 25.0113C124.395 24.8459 124.267 25.5901 124.567 25.7531Z" fill="white"/>
<path d="M127.019 29.1288C128.11 29.6674 129.24 29.7761 130.359 30.0974C130.691 30.1942 130.834 29.4052 130.499 29.3083C129.382 28.9847 128.25 28.8784 127.16 28.3374C126.836 28.1768 126.703 28.9682 127.019 29.1288Z" fill="white"/>
<path d="M122.196 26.1263C122.236 25.2003 122.421 22.2072 121.676 21.6922C120.931 21.1773 120.559 23.2301 120.532 23.9789L120.905 23.6459C120.296 23.0128 118.906 21.6403 118.262 22.9797C117.713 24.1136 118.653 25.1294 119.283 25.2948V24.5506C118.725 24.6806 117.257 24.605 117.201 25.9255C117.145 27.246 118.507 27.1066 119.002 27.1421C118.944 26.9247 118.886 26.705 118.827 26.4854C118.193 27.3003 118.149 28.5595 119.086 28.8051C120.212 29.0981 121.431 28.0256 122.191 26.8421C122.233 26.7685 122.255 26.6733 122.253 26.5757C122.25 26.4781 122.225 26.3854 122.18 26.3163C122.135 26.2473 122.076 26.207 122.013 26.2038C121.95 26.2005 121.888 26.2344 121.841 26.2987C121.395 27.0198 120.837 27.551 120.221 27.8413C119.825 28.0208 118.272 28.1957 119.179 27.031C119.357 26.7948 119.199 26.3909 119.002 26.372C118.697 26.346 117.759 26.1594 118.393 25.5263C118.609 25.3137 119.155 25.3538 119.407 25.29C119.66 25.2262 119.642 24.6073 119.407 24.5459C118.877 24.5758 118.781 24.327 119.119 23.7994C119.165 23.2632 119.311 23.1262 119.555 23.3907C119.887 23.412 120.383 24.0356 120.646 24.3049C120.684 24.338 120.727 24.3553 120.77 24.3552C120.814 24.3551 120.856 24.3375 120.894 24.3042C120.932 24.2709 120.963 24.223 120.986 24.1652C121.008 24.1073 121.02 24.0415 121.021 23.9742C120.969 23.3443 121.15 22.9372 121.564 22.7529C121.627 23.2069 121.671 23.667 121.695 24.1301C121.727 24.793 121.727 25.4587 121.695 26.1216C121.673 26.6153 122.17 26.6129 122.191 26.1216L122.196 26.1263Z" fill="white"/>
<path d="M121.251 24.8082C120.968 24.7445 120.68 24.8444 120.442 25.089C120.203 25.3335 120.031 25.7056 119.958 26.1342C119.885 26.5628 119.917 27.0179 120.046 27.413C120.176 27.808 120.395 28.1152 120.662 28.276C122.033 29.1524 122.662 25.2853 121.311 25.094C120.992 25.0491 120.994 25.8192 121.311 25.8641C121.714 25.9208 121.568 26.9295 121.433 27.2815C121.219 27.8154 120.805 27.6878 120.578 27.2461C120.162 26.4334 120.651 25.4767 121.251 25.5924C121.568 25.6515 121.565 24.8837 121.251 24.8223V24.8082Z" fill="white"/>
<path d="M105.502 4.18996C105.372 3.7364 105.132 2.99464 105.197 2.48438C105.081 2.03554 105.151 1.92451 105.409 2.15602C105.627 2.12924 105.729 2.28673 105.714 2.62848C105.726 2.6928 105.748 2.75121 105.779 2.79802C105.81 2.84482 105.848 2.87843 105.89 2.89556C105.931 2.91269 105.975 2.91276 106.017 2.89576C106.059 2.87876 106.097 2.84527 106.128 2.79856C106.471 2.25523 106.821 1.6812 107.251 1.30323C107.612 0.775647 107.897 0.863049 108.107 1.56544C107.951 1.94129 107.765 2.28567 107.554 2.59069C107.416 2.81038 107.506 3.28284 107.73 3.24741C108.534 3.1222 109.296 3.03007 110.024 3.71987V3.05606C109.317 3.61368 108.551 3.97353 107.763 4.1191C107.711 4.12506 107.662 4.15575 107.622 4.20696C107.582 4.25816 107.553 4.32735 107.539 4.40503C107.525 4.48272 107.528 4.56507 107.545 4.64077C107.563 4.71647 107.595 4.7818 107.638 4.82779C107.929 4.94118 107.964 5.19867 107.743 5.60026C107.72 6.28533 107.487 6.42234 107.041 6.00894C106.56 5.78046 106.127 5.36102 105.784 4.79235C105.737 4.7214 105.674 4.68182 105.609 4.68221C105.543 4.68259 105.481 4.7229 105.435 4.79439C105.388 4.86589 105.362 4.96281 105.361 5.06413C105.361 5.16546 105.386 5.26303 105.432 5.33568C106.041 6.2806 107.51 7.66019 108.398 6.72472C109.16 5.91445 108.398 4.63644 107.888 4.16397L107.763 4.87267C108.638 4.70783 109.488 4.30815 110.274 3.69151C110.311 3.65706 110.342 3.60839 110.363 3.55024C110.384 3.49208 110.395 3.42641 110.395 3.35961C110.395 3.29281 110.384 3.22715 110.363 3.16899C110.342 3.11084 110.311 3.06216 110.274 3.02771C109.477 2.27886 108.635 2.31902 107.73 2.45603L107.905 3.11512C108.264 2.54817 109.25 1.01502 108.578 0.259087C107.688 -0.740168 106.293 1.41662 105.776 2.23161L106.192 2.4017C106.069 1.61269 105.541 0.211843 104.9 1.08826C104.339 1.85364 104.848 3.75294 105.08 4.56085C105.209 5.01441 105.637 4.62226 105.509 4.17343L105.502 4.18996Z" fill="white"/>
<path d="M106.142 3.25451C105.592 3.25451 104.978 3.53326 104.761 4.40022C104.545 5.26719 104.851 6.02785 105.398 6.27589C105.889 6.50031 106.536 6.32786 106.786 5.5672C106.839 5.41113 106.871 5.23957 106.879 5.06347C106.887 4.88737 106.871 4.71062 106.833 4.54452C106.794 4.37843 106.734 4.22665 106.655 4.09889C106.576 3.97113 106.482 3.8702 106.376 3.80256C106.072 3.61594 105.95 4.36243 106.244 4.54433C106.448 4.67189 106.396 5.16089 106.279 5.35696C106.082 5.6806 105.691 5.65934 105.445 5.4987C105.385 5.46171 105.331 5.40245 105.288 5.326C105.245 5.24956 105.215 5.1582 105.2 5.05975C105.185 4.96129 105.186 4.85867 105.202 4.76068C105.218 4.66269 105.249 4.57224 105.293 4.49708C105.482 4.09312 105.851 4.02462 106.146 4.02462C106.212 4.02462 106.275 3.98405 106.322 3.91184C106.368 3.83963 106.395 3.74169 106.395 3.63957C106.395 3.53745 106.368 3.4395 106.322 3.36729C106.275 3.29508 106.212 3.25451 106.146 3.25451H106.142Z" fill="white"/>
<path d="M36.56 61.5C36.9587 59.8187 37.704 58.302 38.796 56.95C39.888 55.598 41.422 54.9393 43.398 54.974C45.2007 55.1473 46.492 55.8667 47.272 57.132C48.0693 58.3973 48.546 59.7927 48.702 61.318C48.8753 62.8433 48.9187 64.0913 48.832 65.062C49.2133 63.8833 49.794 62.5573 50.574 61.084C51.3713 59.5933 52.3333 58.302 53.46 57.21C54.604 56.118 55.8953 55.572 57.334 55.572C59.1193 55.7107 60.5147 56.3693 61.52 57.548C62.5253 58.7267 63.21 60.1913 63.574 61.942C63.938 63.6753 64.0593 65.4433 63.938 67.246C63.834 69.0487 63.5567 70.6347 63.106 72.004C65.0127 72.1427 66.2953 72.264 66.954 72.368C67.63 72.472 68.046 72.55 68.202 72.602C68.5833 72.7233 68.7567 72.966 68.722 73.33C68.6873 73.694 68.4273 73.876 67.942 73.876C67.786 73.8587 67.37 73.798 66.694 73.694C66.018 73.5727 64.718 73.434 62.794 73.278C61.546 76.5887 60.064 79.18 58.348 81.052C57.4813 82.0053 56.3287 82.9413 54.89 83.86C53.4513 84.7787 51.9 85.4893 50.236 85.992C48.5893 86.512 47.0033 86.642 45.478 86.382C43.97 86.1393 42.696 85.3247 41.656 83.938C40.6507 82.3433 40.4947 80.61 41.188 78.738C41.8987 76.866 43.0947 75.384 44.776 74.292C44.8453 71.4667 44.9407 68.572 45.062 65.608C45.0967 64.828 45.1053 63.7273 45.088 62.306C45.088 60.8847 44.9493 59.5673 44.672 58.354C44.412 57.1407 43.9007 56.4387 43.138 56.248C42.202 56.144 41.3787 56.3867 40.668 56.976C39.9573 57.548 39.3593 58.2847 38.874 59.186C38.406 60.0873 38.0507 60.9713 37.808 61.838C37.5827 62.67 37.4787 63.58 37.496 64.568C37.5133 65.556 37.7473 66.44 38.198 67.22C38.666 67.9827 39.4373 68.468 40.512 68.676C40.928 68.7973 41.1187 69.0487 41.084 69.43C41.0667 69.8113 40.8153 69.9933 40.33 69.976C38.562 69.6813 37.3487 68.7367 36.69 67.142C36.0487 65.5473 36.0053 63.6667 36.56 61.5ZM59.284 71.614C59.6133 70.5393 59.8647 69.352 60.038 68.052C60.2287 66.752 60.3153 65.452 60.298 64.152C60.298 62.8347 60.1767 61.63 59.934 60.538C59.7087 59.446 59.3447 58.562 58.842 57.886C58.3567 57.21 57.7067 56.872 56.892 56.872C56.528 56.872 56.1467 56.9587 55.748 57.132C55.3667 57.288 54.9767 57.5393 54.578 57.886C54.1967 58.2153 53.798 58.6573 53.382 59.212C52.9833 59.7493 52.5673 60.408 52.134 61.188C51.718 61.9507 51.2933 62.8347 50.86 63.84C50.4267 64.8453 49.9847 65.972 49.534 67.22C48.858 69.1267 48.3727 70.9553 48.078 72.706C49.6553 72.1513 51.4233 71.8047 53.382 71.666C55.358 71.5273 57.3253 71.51 59.284 71.614ZM58.946 72.888C57.1607 72.784 55.3493 72.8187 53.512 72.992C51.692 73.148 49.8287 73.5293 47.922 74.136C47.7313 75.9733 47.4887 77.5853 47.194 78.972C47.0033 79.596 46.6307 79.934 46.076 79.986C45.5213 80.0207 45.114 79.8733 44.854 79.544C44.7673 79.388 44.698 79.18 44.646 78.92C44.6113 78.66 44.594 78.3653 44.594 78.036C44.594 77.7067 44.6027 77.3687 44.62 77.022C44.6373 76.658 44.6547 76.3027 44.672 75.956C43.684 76.8053 42.9473 77.932 42.462 79.336C41.994 80.7227 42.098 82.0227 42.774 83.236C43.762 84.6747 45.0707 85.3247 46.7 85.186C48.3467 85.0473 49.976 84.458 51.588 83.418C53.2173 82.378 54.5087 81.2167 55.462 79.934C57.1433 77.6113 58.3047 75.2627 58.946 72.888ZM87.2671 53.726C88.4978 53.726 89.5464 54.09 90.4131 54.818C91.2971 55.5287 91.7391 56.5773 91.7391 57.964C91.7044 59.2813 91.1584 60.8413 90.1011 62.644C89.0611 64.4293 87.4144 66.5007 85.1611 68.858C86.1838 72.498 87.8738 75.9387 90.2311 79.18C91.2538 77.3773 92.0511 75.852 92.6231 74.604C93.1951 73.3387 93.5331 72.5847 93.6371 72.342C93.8104 72.03 94.0704 71.9173 94.4171 72.004C94.7638 72.0907 94.9024 72.368 94.8331 72.836C94.7811 73.096 94.4258 73.9193 93.7671 75.306C93.1084 76.6927 92.2158 78.348 91.0891 80.272C92.1811 81.572 93.3771 82.7333 94.6771 83.756C94.9371 84.0333 94.9718 84.3367 94.7811 84.666C94.5904 84.9953 94.2958 85.0387 93.8971 84.796C92.7011 83.8773 91.5224 82.7593 90.3611 81.442C89.8584 82.3087 89.2084 83.2447 88.4111 84.25C87.6138 85.2553 86.7124 86.1653 85.7071 86.98C84.0778 88.176 82.4918 88.6613 80.9491 88.436C79.4238 88.228 78.1844 87.4307 77.2311 86.044C76.2778 84.6573 75.8618 82.82 75.9831 80.532C76.2604 77.516 77.1184 74.838 78.5571 72.498C79.9958 70.158 81.5558 68.2167 83.2371 66.674C82.9078 65.634 82.6738 64.3947 82.5351 62.956C82.3964 61.5173 82.4311 60.1047 82.6391 58.718C82.8644 57.314 83.3411 56.144 84.0691 55.208C84.7971 54.272 85.8631 53.778 87.2671 53.726ZM87.2931 55.026C85.9411 55.0433 85.0138 55.728 84.5111 57.08C84.0084 58.4147 83.7744 59.914 83.8091 61.578C83.8611 63.242 84.0258 64.568 84.3031 65.556C84.6151 65.2267 85.2131 64.438 86.0971 63.19C86.9811 61.942 87.7178 60.6073 88.3071 59.186C88.7231 58.0767 88.8531 57.132 88.6971 56.352C88.5411 55.5547 88.0731 55.1127 87.2931 55.026ZM84.1211 69.95C82.4224 71.77 81.1918 73.6073 80.4291 75.462C79.6664 77.3167 79.2244 79.05 79.1031 80.662C79.0164 81.65 79.0511 82.6207 79.2071 83.574C79.3631 84.5273 79.6664 85.3333 80.1171 85.992C80.5851 86.6507 81.2091 87.006 81.9891 87.058C82.7691 87.1273 83.7398 86.7547 84.9011 85.94C85.7851 85.2813 86.6171 84.4407 87.3971 83.418C88.1944 82.3953 88.8964 81.3813 89.5031 80.376C87.0418 77.1173 85.2478 73.642 84.1211 69.95ZM118.64 71.458C116.04 71.1113 113.917 71.1113 112.27 71.458C110.641 71.8047 109.194 72.888 107.928 74.708C106.854 76.268 106.195 77.88 105.952 79.544C105.727 81.1907 105.848 82.716 106.316 84.12C106.663 85.2813 107.244 86.2953 108.058 87.162C108.89 88.0287 109.991 88.462 111.36 88.462C112.799 88.3927 113.969 87.7253 114.87 86.46C115.789 85.1947 116.5 83.626 117.002 81.754C117.522 79.8993 117.904 78.0447 118.146 76.19C118.389 74.318 118.554 72.7407 118.64 71.458ZM121.474 56.56L121.734 58.276C121.942 59.5933 122.124 61.3093 122.28 63.424C122.454 65.5387 122.506 67.8787 122.436 70.444C123.528 70.5307 124.438 70.4787 125.166 70.288C125.53 70.1667 125.782 70.2793 125.92 70.626C126.059 70.9727 125.903 71.2153 125.452 71.354C124.88 71.51 124.317 71.614 123.762 71.666C123.208 71.7007 122.748 71.7007 122.384 71.666C122.263 74.1273 121.838 76.71 121.11 79.414C120.382 82.118 119.238 84.4493 117.678 86.408C116.136 88.384 114.064 89.502 111.464 89.762C109.904 89.8313 108.578 89.3547 107.486 88.332C106.394 87.3267 105.588 86.0527 105.068 84.51C104.514 82.9153 104.366 81.1907 104.626 79.336C104.886 77.464 105.632 75.6613 106.862 73.928C108.093 72.1427 109.566 70.964 111.282 70.392C113.016 69.8027 115.494 69.7247 118.718 70.158C118.857 66.414 118.883 61.8467 118.796 56.456C116.89 56.4907 115.468 56.7853 114.532 57.34C113.423 57.9987 112.314 59.03 111.204 60.434C110.84 60.7633 110.416 60.7807 109.93 60.486C109.462 60.174 109.298 59.7407 109.436 59.186C109.939 57.886 110.736 56.95 111.828 56.378C112.938 55.806 114.151 55.4593 115.468 55.338C116.786 55.1993 118.346 55.1387 120.148 55.156C121.223 55.156 122.168 55.1213 122.982 55.052C123.814 54.9827 124.577 54.8093 125.27 54.532C125.964 54.2373 126.666 53.7693 127.376 53.128C128.035 52.6427 128.694 52.5387 129.352 52.816C130.028 53.0933 130.21 53.492 129.898 54.012C128.668 55.5027 127.368 56.3607 125.998 56.586C124.629 56.794 123.242 56.8027 121.838 56.612L121.474 56.56Z" fill="white"/>
</svg>
